# xmcd
#
# Track frame offsets:
#	180
#	15445
#	31903
#	52794
#	64926
#	83138
#	97760
#	113594
#	126565
#	147876
#	161477
#	181619
#	201147
#	214577
#
# Disc length: 3038 seconds
#
# Revision: 1
# Processed by: cddbd v1.4PL0 Copyright (c) Steve Scherf et al.
# Submitted via: audiograbber 1.81.03
#
DISCID=ab0bdc0e
DTITLE=Steve Bailey and The Blue Flames - Hop On Board
DYEAR=1900
DGENRE=Blues
TTITLE0=Steve's Harmonica Boogie
TTITLE1=Eyesight To The Blind
TTITLE2=Ain't Gonna Cry
TTITLE3=Firecracker
TTITLE4=I Started Drinkin'
TTITLE5=Playin' The Greats
TTITLE6=Pocket Full Of Money
TTITLE7=She Is Real
TTITLE8=Bon Ton Roulet
TTITLE9=Dear Dad
TTITLE10=Hurricane
TTITLE11=Hop On Board
TTITLE12=Stop
TTITLE13=Every Night
EXTD=
EXTT0=
EXTT1=
EXTT2=
EXTT3=
EXTT4=
EXTT5=
EXTT6=
EXTT7=
EXTT8=
EXTT9=
EXTT10=
EXTT11=
EXTT12=
EXTT13=
PLAYORDER=
